<svg xmlns="http://www.w3.org/2000/svg" version="1.1" xmlns:xlink="http://www.w3.org/1999/xlink" width="512" height="512" x="0" y="0" viewBox="0 0 64 64" style="enable-background:new 0 0 512 512" xml:space="preserve" class=""><g><linearGradient id="d" x1="32" x2="32" y1="16.412" y2="32.664" gradientUnits="userSpaceOnUse"><stop stop-opacity="1" stop-color="#ff5f6f" offset="0"></stop><stop stop-opacity="1" stop-color="#ff2d44" offset="0.346"></stop><stop stop-opacity="1" stop-color="#d41e32" offset="0.722"></stop><stop stop-opacity="1" stop-color="#d61f33" offset="0.853"></stop><stop stop-opacity="1" stop-color="#de2337" offset="0.918"></stop><stop stop-opacity="1" stop-color="#eb293e" offset="0.968"></stop></linearGradient><linearGradient id="e" x1="31.889" x2="32.001" y1="15.886" y2="22.411" gradientUnits="userSpaceOnUse"><stop offset="0" stop-color="#ff8a95"></stop><stop offset=".66" stop-color="#ff495d"></stop><stop offset="1" stop-color="#ff2d44"></stop></linearGradient><linearGradient id="a" x1="37.396" x2="37.546" y1="18.908" y2="24.57" gradientUnits="userSpaceOnUse"><stop offset="0" stop-color="#ff5f5f"></stop><stop offset=".283" stop-color="#ff565a"></stop><stop offset=".746" stop-color="#ff3d4d"></stop><stop offset="1" stop-color="#ff2d44"></stop></linearGradient><linearGradient xlink:href="#a" id="f" x1="29.954" x2="30.367" y1="18.998" y2="22.598"></linearGradient><linearGradient id="b" x1="55.643" x2="60.218" y1="24.261" y2="29.961" gradientUnits="userSpaceOnUse"><stop stop-opacity="1" stop-color="#ff5c5c" offset="0.005"></stop><stop stop-opacity="1" stop-color="#eb1c1c" offset="1"></stop></linearGradient><linearGradient xlink:href="#b" id="g" x1="32.213" x2="31.988" y1="1.424" y2="10.499"></linearGradient><linearGradient xlink:href="#b" id="h" x1="8.353" x2="3.928" y1="25.228" y2="29.653"></linearGradient><linearGradient xlink:href="#b" id="i" x1="-1.504" x2="12.596" y1="40.605" y2="54.405"></linearGradient><linearGradient xlink:href="#b" id="j" x1="32" x2="32" y1="38.912" y2="62.109"></linearGradient><linearGradient xlink:href="#b" id="k" x1="67.452" x2="52.602" y1="39.762" y2="53.262"></linearGradient><linearGradient id="l" x1="32" x2="32" y1="10.9" y2="40.397" gradientUnits="userSpaceOnUse"><stop stop-opacity="1" stop-color="#fffafc" offset="0"></stop><stop stop-opacity="1" stop-color="#f4c7b2" offset="1"></stop></linearGradient><linearGradient id="c" x1="-1.504" x2="12.596" y1="40.605" y2="54.405" gradientUnits="userSpaceOnUse"><stop stop-opacity="1" stop-color="#f24b4f" offset="0"></stop><stop stop-opacity="1" stop-color="#ee474c" offset="0.209"></stop><stop stop-opacity="1" stop-color="#e13c43" offset="0.428"></stop><stop stop-opacity="1" stop-color="#cc2a34" offset="0.652"></stop><stop stop-opacity="1" stop-color="#e72213" offset="0.879"></stop></linearGradient><linearGradient xlink:href="#c" id="m" x1="67.452" x2="52.602" y1="39.762" y2="53.262"></linearGradient><linearGradient id="n" x1="32" x2="32" y1="23.859" y2="44.601" gradientUnits="userSpaceOnUse"><stop offset="0" stop-color="#fff" stop-opacity=".1"></stop><stop offset=".322" stop-color="#fce9e9" stop-opacity=".222"></stop><stop offset=".735" stop-color="#f7c9c9" stop-opacity=".4"></stop><stop offset=".997" stop-color="#f0adbd"></stop></linearGradient><path fill="url(#d)" d="M32.38 32.88a.662.662 0 0 1-.76 0C29.79 31.63 22 26.07 22 22.38 22 18.2 25.06 17 27.48 17A7.484 7.484 0 0 1 32 19.09 7.484 7.484 0 0 1 36.52 17c2.42 0 5.48 1.2 5.48 5.38 0 3.69-7.79 9.25-9.62 10.5z"></path><path fill="url(#e)" d="M27.48 18A7.484 7.484 0 0 1 32 20.09 7.484 7.484 0 0 1 36.52 18c2.274 0 5.111 1.06 5.446 4.654.009-.091.034-.185.034-.274C42 18.2 38.94 17 36.52 17A7.484 7.484 0 0 0 32 19.09 7.484 7.484 0 0 0 27.48 17C25.06 17 22 18.2 22 22.38c0 .089.025.183.034.274C22.369 19.06 25.206 18 27.48 18z"></path><path fill="url(#a)" d="M36.69 24.133a1.656 1.656 0 0 0 2.53.484 4.362 4.362 0 0 0 .713-.836 2.848 2.848 0 0 0-.03-3.268 2.875 2.875 0 0 0-1.54-.907c-1.089-.271-3.939.142-3.857 1.729.038.733 1.1 1.315 1.533 1.842a6.883 6.883 0 0 1 .651.956z"></path><path fill="url(#a)" d="M29.924 22c.307.649.916 1.014 1.228.75a1.2 1.2 0 0 0 .289-.358 2.086 2.086 0 0 0-.2-1.917 2.7 2.7 0 0 0-.783-.815c-.533-.359-1.86-.643-1.729.3.061.436.6.973.835 1.36a7.513 7.513 0 0 1 .36.68z"></path><path fill="url(#b)" d="m62.69 27.28-5.49 4.95L57 32V21.62l4.67 4.19a3.722 3.722 0 0 1 1.02 1.47z"></path><path fill="url(#b)" d="M44.04 10H19.96l8.55-7.66a5.215 5.215 0 0 1 6.98 0z"></path><path fill="url(#b)" d="M7 21.62V32l-.2.23-5.49-4.95a3.722 3.722 0 0 1 1.02-1.47z"></path><path fill="url(#b)" d="m6.8 32.23 14.61 13.18-19.15 16.5A3.962 3.962 0 0 1 1 59V28.79a3.678 3.678 0 0 1 .31-1.51z"></path><path fill="url(#b)" d="m42.59 45.41 19.15 16.5A4.013 4.013 0 0 1 59 63H5a4.013 4.013 0 0 1-2.74-1.09l19.15-16.5 7.08-6.1a5.357 5.357 0 0 1 7.02 0z"></path><path fill="url(#b)" d="M63 28.79V59a3.962 3.962 0 0 1-1.26 2.91l-19.15-16.5L57.2 32.23l5.49-4.95a3.678 3.678 0 0 1 .31 1.51z"></path><path fill="url(#l)" d="m57 32 .2.23-14.61 13.18-7.08-6.1a5.357 5.357 0 0 0-7.02 0l-7.08 6.1L6.8 32.23 7 32V10h50zm-15-9.62C42 18.2 38.94 17 36.52 17A7.484 7.484 0 0 0 32 19.09 7.484 7.484 0 0 0 27.48 17C25.06 17 22 18.2 22 22.38c0 3.69 7.79 9.25 9.62 10.5a.662.662 0 0 0 .76 0c1.83-1.25 9.62-6.81 9.62-10.5z"></path><path fill="url(#c)" d="M1 49v10a3.962 3.962 0 0 0 1.26 2.91l19.15-16.5-2.09-1.885C15.742 46.583 7.18 52.862 1 49z"></path><path fill="url(#c)" d="m44.68 43.525-2.09 1.885 19.15 16.5A3.962 3.962 0 0 0 63 59V49c-6.18 3.862-14.742-2.417-18.32-5.475z"></path><path fill="url(#n)" d="M57 32v-5L41.553 40.516 35.51 35.31a5.357 5.357 0 0 0-7.02 0l-6.043 5.206L7 27v5l-.2.23 13.476 12.157 1.134 1.023 2.8-2.41 4.283-3.69a5.357 5.357 0 0 1 7.02 0l4.28 3.69 2.8 2.41 1.134-1.023L57.2 32.23z"></path><path d="M32 34a1.666 1.666 0 0 1-.949-.3C28.027 31.637 21 26.4 21 22.38c0-4.709 3.491-6.38 6.48-6.38A7.787 7.787 0 0 1 32 17.774 7.787 7.787 0 0 1 36.52 16c2.989 0 6.48 1.671 6.48 6.38 0 4.023-7.033 9.261-10.056 11.326A1.656 1.656 0 0 1 32 34zm-4.52-16c-1.347 0-4.48.427-4.48 4.38 0 2.318 4.49 6.439 9 9.548 4.515-3.113 9-7.231 9-9.548 0-3.953-3.133-4.38-4.48-4.38a6.556 6.556 0 0 0-3.814 1.8 1 1 0 0 1-1.412 0A6.5 6.5 0 0 0 27.48 18z" fill="#ad0d00"></path><path d="M59 64H5a5.015 5.015 0 0 1-3.421-1.357A4.941 4.941 0 0 1 0 59V28.79a4.678 4.678 0 0 1 .4-1.918 4.678 4.678 0 0 1 1.268-1.809l4.667-4.187 1.336 1.488L3 26.554a2.713 2.713 0 0 0-.752 1.077A2.788 2.788 0 0 0 2 28.79V59a2.957 2.957 0 0 0 .943 2.18A3.02 3.02 0 0 0 5 62h54a3.021 3.021 0 0 0 2.059-.822A2.954 2.954 0 0 0 62 59V28.79a2.683 2.683 0 0 0-.223-1.1A2.778 2.778 0 0 0 61 26.557l-4.672-4.193 1.336-1.488 4.67 4.19a4.744 4.744 0 0 1 1.288 1.863A4.578 4.578 0 0 1 64 28.79V59a4.938 4.938 0 0 1-1.576 3.64A5.017 5.017 0 0 1 59 64zM43.373 10.745l-8.55-7.661a4.323 4.323 0 0 0-5.646 0l-8.55 7.66-1.335-1.49 8.55-7.66a6.216 6.216 0 0 1 8.315 0l8.551 7.66z" fill="#ad0d00"></path><path d="m41.308 45.19 18.818-16.896 1.336 1.488-18.818 16.896zM2.562 29.743l1.34-1.486 18.792 16.946-1.34 1.486z" fill="#ad0d00"></path><path d="m58.871 60.758-24.014-20.69a4.462 4.462 0 0 0-5.708-.006l-24.02 20.7-1.3-1.516 24.013-20.69a6.358 6.358 0 0 1 8.332.006l24.002 20.68zM6 27h2v2H6zM58 29h-2V11H8v14H6V10a1 1 0 0 1 1-1h50a1 1 0 0 1 1 1z" fill="#ad0d00"></path></g></svg>